<?xml version="1.0" encoding="UTF-8"?>
<svg width="902.5" height="701" version="1.1" viewBox="0 -2.5 180.5 140.2" xmlns="http://www.w3.org/2000/svg">
<g transform="translate(4.5001 4.4976)">
<path d="m82.786 105.25c-5.7361 0-14.106-2.6647-21.961-7.009-4.343-2.4069-8.0902-5.5726-10.33-10.157-0.68831-1.1727-1.0982-2.4879-1.198-3.8441 0.03606-1.311 0.08205-2.5352 1.3579-3.0834 0.6462-0.22508 1.3429-0.26296 2.0098-0.10952 0.6669 0.15356 1.2768 0.49228 1.7595 0.97729 1.5447 1.4913 2.3845 3.7874 4.0431 5.0715 11.269 8.7289 23.736 12.549 37.832 8.188 6.5677-2.0326 11.125-6.6467 14.57-12.456 0.83014-1.4005 1.4267-3.1786 2.6526-4.0431 1.3735-0.96773 3.7078-1.9134 4.9445-1.3578 1.2367 0.55556 2.2363 2.9704 2.2544 4.5822 0.0182 1.751-0.97051 3.6636-1.9374 5.2524-7.4313 12.216-18.392 18.131-35.999 17.988z" color="#000000" stroke-width="2.4" style="-inkscape-stroke:none"/>
<path d="m117.3 76.047c-0.54886 0.03518-1.0918 0.17357-1.6172 0.33984-1.0508 0.33254-2.0536 0.85184-2.8516 1.4141-1.7093 1.2055-2.2626 3.178-2.9941 4.4121-3.3512 5.6495-7.6651 9.9945-13.893 11.922-13.716 4.2437-25.678 0.58008-36.742-7.9902-1.2639-0.97846-2.1131-3.2102-3.9375-4.9766-0.64088-0.64084-1.4488-1.0896-2.332-1.293-0.88691-0.20407-1.8122-0.15492-2.6719 0.14453l-0.04102 0.01367-0.03906 0.01758c-0.93078 0.39993-1.5576 1.2103-1.8105 1.9863s-0.2553 1.5067-0.27344 2.166l-2e-3 0.06055 0.0059 0.06055c0.11237 1.5265 0.57423 3.0054 1.3438 4.3281 2.3782 4.8371 6.3365 8.1617 10.799 10.635v2e-3c7.989 4.4185 16.433 7.1582 22.541 7.1582 17.874 0.14256 29.413-6.0501 37.025-18.564 1.0004-1.6438 2.1343-3.6769 2.1113-5.8887v-2e-3c-0.0118-1.0472-0.30673-2.1593-0.78125-3.1797-0.47453-1.0204-1.0807-1.9879-2.1816-2.4824-0.55397-0.24891-1.1093-0.31839-1.6582-0.2832zm0.67578 2.4727c0.13579 0.061 0.64736 0.5758 0.98633 1.3047 0.33897 0.72888 0.55224 1.6306 0.55859 2.1953 0.0134 1.2903-0.82831 3.0815-1.7617 4.6152-7.2484 11.915-17.631 17.553-34.965 17.412h-0.0098c-5.3644 0-13.658-2.5892-21.379-6.8594-4.2088-2.3325-7.7287-5.3267-9.832-9.6328l-0.01953-0.04102-0.02344-0.04102c-0.58832-1.0024-0.93382-2.1267-1.0254-3.2851 0.01928-0.60351 0.05383-1.122 0.14648-1.4062 0.09269-0.28442 0.1561-0.36258 0.45117-0.49609 0.41821-0.13538 0.86359-0.17106 1.293-0.07227 0.44678 0.10288 0.85448 0.3295 1.1777 0.6543l0.0078 0.0098 0.0098 0.0078c1.2583 1.2148 2.0895 3.5683 4.1406 5.1562 11.473 8.8875 24.446 12.866 38.922 8.3867 6.9079-2.1379 11.708-7.0219 15.248-12.99 0.92834-1.5661 1.5705-3.1496 2.3125-3.6738 0.57554-0.40551 1.4245-0.84457 2.1934-1.0879 0.76888-0.24332 1.4396-0.21411 1.5684-0.15625z" color="#000000" style="-inkscape-stroke:none"/>
</g>
<g transform="translate(4.5001 4.4976)">
<path d="m49.299 43.744c7.951 0.12295 12.648 3.4535 16.468 8.7358 0.68022 0.91953 1.1974 1.9928 1.5215 3.1574 0.81022 3.1474-1.1752 5.7499-3.7966 4.6464-1.8869-0.93757-3.5924-2.3126-5.0173-4.0456-3.4812-3.8842-7.3962-5.0419-12.094-3.7321-6.9077 1.9258-12.484 5.7722-15.599 13.744-0.70944 1.8145-1.8009 3.4788-3.7685 2.6088-2.1001-0.92821-2.2456-3.3418-1.4643-5.1748 1.5469-3.6279 3.1406-7.4567 5.4722-10.351 5.4178-6.7208 12.542-9.0523 18.278-9.5895z" color="#000000" style="-inkscape-stroke:none"/>
<path d="m49.252 42.543-0.06445 0.0059c-5.9659 0.55864-13.446 3.0159-19.102 10.031-2.4884 3.0886-4.0965 7.0116-5.6406 10.633v2e-3c-0.47568 1.116-0.68352 2.3927-0.41797 3.6445 0.26555 1.2519 1.1076 2.4822 2.5 3.0977 1.3177 0.58259 2.763 0.27237 3.6348-0.49414 0.87179-0.76651 1.3509-1.7896 1.7363-2.7754h2e-3c2.9865-7.642 8.1323-11.166 14.803-13.025 4.3555-1.2143 7.6171-0.2625 10.879 3.377l-0.03325-0.03915c1.5255 1.8553 3.3626 3.342 5.4102 4.3594l0.0332 0.01563 0.03516 0.01563c1.7215 0.72464 3.5782 0.17795 4.5879-1.0879 1.0097-1.2658 1.32-3.0847 0.83594-4.9648l-2e-3 -0.01172-0.0039-0.0098c-0.36077-1.2964-0.93822-2.5015-1.7089-3.5449-3.9527-5.4635-9.1422-9.0986-17.418-9.2266zm0.0918 2.4082c7.5793 0.1352 11.776 3.1502 15.451 8.2324l0.0039 0.0039 0.0039 0.0059c0.58515 0.79102 1.0372 1.7287 1.3242 2.7539 0.32184 1.2623 0.04786 2.3146-0.38672 2.8594-0.42985 0.5389-0.87848 0.73294-1.7539 0.375-1.7091-0.8573-3.2707-2.1079-4.584-3.7051l-0.01563-0.01953-0.01758-0.01953c-3.7005-4.129-8.2704-5.493-13.311-4.0879-7.145 1.9919-13.15 6.1624-16.395 14.465-0.32403 0.82878-0.74469 1.5439-1.0879 1.8457-0.3432 0.30176-0.42823 0.3889-1.0781 0.10156-0.70767-0.31278-0.98617-0.75514-1.123-1.4004s-0.02828-1.49 0.27734-2.207c1.5498-3.6346 3.128-7.369 5.3027-10.068 5.1599-6.4008 11.893-8.6077 17.389-9.1348z" color="#000000" style="-inkscape-stroke:none"/>
</g>
<g transform="translate(4.5001 4.4976)">
<path d="m141.01 56.514c-0.42641 0.56376-1.1242 2.4131-2.2968 2.7917-0.75954 0.144-1.5409 0.1204-2.2908-0.06922-0.74866-0.18974-1.4476-0.54077-2.0461-1.0287-1.3677-1.1979-2.1442-3.1006-3.0733-4.7574-0.57301-1.1745-1.501-2.1389-2.653-2.7566-1.1533-0.61773-2.4713-0.85732-3.7675-0.68476-7.1582 0.61616-13.581 2.6679-18.203 8.7215-0.70141 0.91927-3.1693 0.93888-3.6312 0.51681-0.9844-0.90124-1.8982-2.0484-1.5512-3.1848 0.67936-2.0553 1.8466-3.9156 3.4018-5.4226 6.189-6.0519 13.884-8.4724 22.389-8.238 6.4302 0.17364 13.481 7.1228 13.722 14.112z" color="#000000" stroke-width="2.4" style="-inkscape-stroke:none"/>
<path d="m127.32 41.203c-8.75-0.24071-16.827 2.2918-23.256 8.5762-6.7e-4 6.42e-4 -1e-3 0.0013-2e-3 2e-3 -6.7e-4 6.62e-4 -1e-3 0.0013-2e-3 2e-3 -1.6922 1.641-2.9635 3.6648-3.7031 5.9023l-8e-3 0.02734c-0.29228 0.95745-0.0284 1.9059 0.38086 2.625 0.40921 0.71915 0.96498 1.2979 1.5078 1.7949h2e-3c0.51171 0.46759 0.88593 0.47049 1.3047 0.5293 0.41875 0.05881 0.86719 0.06645 1.334 0.02539 0.93312-0.08207 1.9941-0.23387 2.7539-1.2285 4.3755-5.7313 10.361-7.652 17.354-8.2539l0.0273-2e-3 0.0273-0.0039c1.0467-0.13934 2.1113 0.05371 3.043 0.55273 0.93014 0.49875 1.678 1.2763 2.1406 2.2246l0.0156 0.03125 0.0156 0.0293c0.87695 1.5637 1.658 3.6097 3.3301 5.0742l0.0312 0.02734c0.73464 0.59894 1.5919 1.0291 2.5098 1.2617h2e-3c0.919 0.23239 1.8775 0.2605 2.8086 0.08398l0.0723-0.01367 0.0723-0.02344c1.0637-0.34345 1.6369-1.1478 2.0684-1.8164 0.43145-0.66866 0.79405-1.363 0.81641-1.3926l0.25781-0.33984-0.0156-0.42578c-0.13395-3.8837-2.1137-7.6025-4.8848-10.412-2.7706-2.8092-6.3676-4.7586-10.002-4.8574zm-0.0645 2.3984c2.7951 0.07548 5.9374 1.6889 8.3594 4.1445 2.3477 2.3804 3.9546 5.5054 4.1504 8.5234-0.21183 0.35877-0.41433 0.72195-0.63281 1.0605-0.30156 0.46734-0.62336 0.73412-0.75 0.79297-0.5541 0.08996-1.1205 0.08912-1.666-0.04883-0.57227-0.14503-1.1041-0.41747-1.5625-0.78711-1.0557-0.93465-1.8279-2.6821-2.8047-4.4238l0.0312 0.06055c-0.68336-1.4007-1.7901-2.5504-3.1641-3.2871-1.3708-0.73425-2.9372-1.0187-4.4785-0.81641-7.3082 0.63512-14.153 2.8179-19.012 9.1816v2e-3c0.0585-0.07668-0.46545 0.24097-1.0566 0.29297-0.2956 0.026-0.59521 0.01578-0.79102-0.01172-0.0646-0.0091-0.0906-0.02772-0.125-0.04492-0.38682-0.36952-0.75144-0.76286-0.9375-1.0898-0.20535-0.36088-0.22293-0.55265-0.16992-0.73047 0.61953-1.863 1.6769-3.5507 3.0879-4.918l4e-3 -4e-3c5.9478-5.8161 13.26-8.1241 21.518-7.8965z" color="#000000" style="-inkscape-stroke:none"/>
</g>
<path d="m7.2618 1.9976a2.762 2.762 0 0 0-2.7617 2.7617v125.68a2.762 2.762 0 0 0 2.7617 2.7617h165.98a2.762 2.762 0 0 0 2.7617-2.7617v-125.68a2.762 2.762 0 0 0-2.7617-2.7617zm2.7617 5.5234h160.46v120.15h-160.46z" color="#000000" fill-rule="evenodd" stroke="#fff" stroke-linejoin="round" stroke-width="9.0002" style="paint-order:markers stroke fill"/>
<path d="m7.547 2.3081a2.7532 2.7532 0 0 0-2.752 2.7539v18.531a2.7532 2.7532 0 0 0 2.752 2.7539h165.45a2.7532 2.7532 0 0 0 2.752-2.7539v-18.531a2.7532 2.7532 0 0 0-2.752-2.7539zm2.7539 5.5059h159.95v13.027h-159.95z" color="#000000" fill-rule="evenodd" stroke-linejoin="round" style="-inkscape-stroke:none;paint-order:markers stroke fill"/>
<g transform="translate(4.5001 4.4976)" fill-rule="evenodd" stroke-linejoin="round">
<path d="m155.94 5.3848c-0.48132 0.076056-0.89016 0.34182-1.168 0.70117s-0.43238 0.82364-0.38477 1.3086c0.0476 0.48496 0.31403 0.97429 0.7793 1.334 0.39281 0.31025 0.76815 0.67041 1.168 1.0391a0.55591 0.55591 0 0 0 0.0156 0.013672c0.25904 0.22121 0.50627 0.46988 0.75196 0.73437a0.55591 0.55591 0 0 0 0.0215 0.02148c0.26766 0.25825 0.52856 0.55281 0.81055 0.85352 0.30898 0.34779 0.64198 0.65047 0.97851 0.93359 0.20978 0.1832 0.39507 0.34056 0.52344 0.49414 0.17188 0.20838 0.3348 0.38367 0.46094 0.55078a0.55591 0.55591 0 0 0 0.0527 0.06055c0.0477 0.04727 0.10581 0.12203 0.18945 0.22461a0.55591 0.55591 0 0 0 2e-3 0c0.37194 0.45554 0.86746 0.70944 1.3535 0.74414 0.48605 0.03469 0.94504-0.13265 1.2969-0.41992 0.35184-0.28727 0.60669-0.70238 0.66992-1.1855 0.0632-0.48317-0.0851-1.021-0.45703-1.4766-0.0398-0.04872-0.10959-0.1697-0.27344-0.30859l0.0742 0.07617c-0.19598-0.24433-0.3973-0.48438-0.60352-0.7207a0.55591 0.55591 0 0 0-0.0117-0.01172c-0.27531-0.29824-0.56963-0.58808-0.89649-0.85547l-6e-3 -0.00586c-0.23772-0.20015-0.45255-0.39318-0.63281-0.60156a0.55591 0.55591 0 0 0-0.0156-0.017578c-0.26595-0.28307-0.53853-0.59028-0.8457-0.88867l-0.0117-0.011719c-0.29133-0.30657-0.59687-0.62753-0.94522-0.92578l-0.0156-0.013672c-0.44004-0.40342-0.88657-0.83086-1.3906-1.2266a0.55591 0.55591 0 0 0-2e-3 -0.00195c-0.46523-0.35969-1.0069-0.49403-1.4882-0.41797zm0.17382 1.0977c0.17683-0.027941 0.3768-2.083e-4 0.63477 0.19922 0.45203 0.3552 0.88248 0.7665 1.3379 1.1836a0.55591 0.55591 0 0 0 0.0137 0.013672c0.30155 0.25659 0.58881 0.55573 0.88672 0.86914a0.55591 0.55591 0 0 0 0.0176 0.015625c0.26681 0.25762 0.52775 0.55199 0.80859 0.85156 0.24419 0.28229 0.50929 0.5149 0.76563 0.73047a0.55591 0.55591 0 0 0 6e-3 0.0059c0.27652 0.22565 0.53631 0.4801 0.78906 0.75391 0.19278 0.22122 0.37883 0.44679 0.5625 0.67578a0.55591 0.55591 0 0 0 0.0742 0.07617c-0.0181-0.01534 0.0486 0.05905 0.13281 0.16211 0.20622 0.25257 0.24003 0.4514 0.2168 0.62891-0.0232 0.1775-0.12262 0.3472-0.27149 0.46875s-0.33706 0.18657-0.51562 0.17383c-0.17811-0.01272-0.36471-0.08687-0.57031-0.33789-0.053-0.065-0.13075-0.15857-0.2168-0.25195-0.17306-0.22927-0.35044-0.41744-0.49414-0.5918a0.55591 0.55591 0 0 0-2e-3 -0.0039c-0.21951-0.26261-0.45659-0.4539-0.65235-0.625a0.55591 0.55591 0 0 0-8e-3 -0.0059c-0.31457-0.26464-0.60814-0.53288-0.86524-0.82226a0.55591 0.55591 0 0 0-0.01-0.01172c-0.2637-0.2808-0.53327-0.58474-0.83789-0.88086l-0.0156-0.013672c-0.25206-0.2708-0.51713-0.54312-0.8125-0.79688l-0.0156-0.013672c-0.38447-0.35516-0.77656-0.73237-1.2224-1.084a0.55591 0.55591 0 0 0-4e-3 -0.00391c-0.25797-0.19943-0.33603-0.38434-0.35352-0.5625-0.0175-0.17816 0.0426-0.36553 0.16016-0.51758 0.11754-0.15205 0.28411-0.25722 0.46093-0.28516z" color="#000000" style="-inkscape-stroke:none;paint-order:markers stroke fill"/>
<path d="m155.51 8.2883c0.42291 0.33354 0.80959 0.70591 1.2049 1.0704 0.28313 0.24179 0.54433 0.5067 0.79753 0.77929 0.29262 0.28234 0.56186 0.58767 0.84011 0.88397 0.28304 0.31859 0.59671 0.60401 0.92226 0.87789 0.20452 0.17875 0.41736 0.35345 0.59216 0.56258 0.15815 0.19189 0.32819 0.37423 0.47803 0.57274 0.0846 0.0839 0.15464 0.17691 0.22937 0.26856 1.1563 1.4162 3.1592-0.21905 2.0028-1.6353-0.062-0.07589-0.13013-0.17395-0.20301-0.23572-0.19126-0.23845-0.3873-0.47292-0.58838-0.70336-0.26495-0.28702-0.54365-0.56099-0.84665-0.80825-0.24838-0.20888-0.48893-0.42307-0.70201-0.6694-0.27934-0.29732-0.5497-0.60385-0.84324-0.88728-0.29861-0.31415-0.59851-0.62793-0.92908-0.90921-0.45065-0.41274-0.89198-0.83463-1.3734-1.2126-1.4465-1.1182-3.0279 0.92739-1.5814 2.0456z" color="#000000" stroke-width="1.1117" style="-inkscape-stroke:none;paint-order:markers stroke fill"/>
</g>
<g transform="translate(4.5001 4.4976)" fill-rule="evenodd" stroke-linejoin="round">
<path d="m162.32 4.9531c-0.48488-0.04832-1.0171 0.11617-1.4609 0.50195a0.55591 0.55591 0 0 0-4e-3 0.00391c-0.21033 0.18605-0.49066 0.37502-0.77539 0.63477-1e-3 0.00123-2e-3 0.00267-4e-3 0.00391-4e-3 0.00325-6e-3 0.00454-0.01 0.00781-0.34632 0.30044-0.66765 0.61141-0.98243 0.91602-0.27978 0.26234-0.55788 0.52917-0.83203 0.80469-0.27068 0.26978-0.5519 0.5543-0.8164 0.87305-0.26157 0.27309-0.53562 0.5622-0.78516 0.89453-0.16694 0.2218-0.33116 0.42789-0.50391 0.60938-0.28682 0.30009-0.66465 0.59286-1.0332 0.96484-0.441 0.38906-0.6753 0.89579-0.69141 1.3828-0.0161 0.48702 0.16826 0.93868 0.46875 1.2793 0.3005 0.34061 0.72571 0.58027 1.2109 0.625 0.48523 0.04473 1.016-0.12461 1.457-0.51367a0.55591 0.55591 0 0 0 0.0195-0.01953c0.37376-0.3641 0.80047-0.71757 1.2129-1.1328a0.55591 0.55591 0 0 0 6e-3 -0.0059c0.298-0.30991 0.56087-0.63862 0.80665-0.96484l2e-3 -2e-3c0.13823-0.18186 0.31028-0.36295 0.49805-0.55859a0.55591 0.55591 0 0 0 0.0234-0.02734c0.22784-0.26999 0.46929-0.52728 0.72266-0.77344a0.55591 0.55591 0 0 0 0.01-0.0098c0.24148-0.24654 0.49783-0.48883 0.75977-0.73438a0.55591 0.55591 0 0 0 4e-3 -0.00391c0.30016-0.28729 0.58268-0.56606 0.87304-0.81641a0.55591 0.55591 0 0 0 4e-3 -0.00391c0.22872-0.20066 0.50241-0.39862 0.7832-0.64062a0.55591 0.55591 0 0 0 2e-3 -0.00195c0.44387-0.38579 0.68146-0.89007 0.70117-1.377 0.0197-0.48689-0.16102-0.93842-0.45899-1.2812-0.29796-0.34283-0.72214-0.58645-1.207-0.63477zm-0.10937 1.1055c0.17813 0.017751 0.35048 0.11276 0.47656 0.25781 0.12608 0.14506 0.19474 0.32894 0.1875 0.50781-7e-3 0.17887-0.0742 0.37009-0.32031 0.58398-0.23251 0.20019-0.50675 0.39857-0.78711 0.64453l2e-3 -0.00391c-0.32925 0.28388-0.62522 0.57911-0.91601 0.85742-0.25909 0.24287-0.52121 0.49088-0.7793 0.75391-0.27106 0.26334-0.52695 0.54012-0.77149 0.82812-0.18804 0.19594-0.39331 0.40689-0.58398 0.6582a0.55591 0.55591 0 0 0-2e-3 2e-3c-0.2322 0.30829-0.46767 0.60013-0.72071 0.86328-0.35573 0.35746-0.7663 0.7026-1.1719 1.0957h-2e-3c-0.24359 0.21417-0.44137 0.25662-0.61915 0.24023-0.17825-0.01643-0.35137-0.10979-0.47851-0.25391-0.12715-0.14412-0.19732-0.32694-0.19141-0.50586 6e-3 -0.17892 0.07-0.37022 0.31446-0.58594a0.55591 0.55591 0 0 0 0.0312-0.0293c0.30174-0.30927 0.69422-0.60616 1.0723-1.002a0.55591 0.55591 0 0 0 2e-3 0c0.22149-0.23269 0.40949-0.4745 0.58594-0.70898a0.55591 0.55591 0 0 0 0-2e-3c0.20076-0.26737 0.44281-0.52526 0.69922-0.79297a0.55591 0.55591 0 0 0 0.0273-0.03125c0.22765-0.27796 0.49311-0.54677 0.77149-0.82422a0.55591 0.55591 0 0 0 2e-3 -0.00195c0.26321-0.26453 0.53421-0.52417 0.81055-0.7832a0.55591 0.55591 0 0 0 8e-3 -0.00586c0.31919-0.30888 0.629-0.60974 0.94922-0.88672a0.55591 0.55591 0 0 0 0.0137-0.011719c0.20404-0.18792 0.47976-0.37301 0.76758-0.62695 0.2461-0.2139 0.44491-0.25408 0.62305-0.23633z" color="#000000" style="-inkscape-stroke:none;paint-order:markers stroke fill"/>
<path d="m157.19 13.524c0.39429-0.3841 0.81729-0.73672 1.2052-1.1273 0.27584-0.28687 0.52539-0.59739 0.76461-0.915 0.16458-0.21692 0.35356-0.41352 0.54181-0.60968 0.23963-0.28396 0.49276-0.5555 0.75927-0.81443 0.25186-0.25714 0.51358-0.50374 0.77622-0.74994 0.29548-0.2828 0.58526-0.57007 0.89507-0.83718 0.25492-0.22364 0.5299-0.42245 0.78675-0.64382 1.3799-1.1994-0.31622-3.1509-1.6962-1.9515-0.25183 0.22276-0.53308 0.41053-0.78069 0.63857-0.33593 0.29057-0.65416 0.59875-0.97325 0.90754-0.27907 0.26159-0.55518 0.52571-0.82484 0.79671-0.27953 0.2786-0.55855 0.55913-0.80885 0.86475-0.25899 0.2704-0.51583 0.544-0.74098 0.84385-0.17186 0.22839-0.34833 0.4531-0.54561 0.66036-0.33683 0.35265-0.72847 0.64902-1.0691 0.99818-1.371 1.2096 0.33954 3.1485 1.7106 1.9389z" color="#000000" stroke-width="1.1117" style="-inkscape-stroke:none;paint-order:markers stroke fill"/>
</g>
<path d="m10.109 77.09v-50.478h160.16v100.95h-160.16zm91.802 32.436c9.132-2.3366 15.979-7.1298 21.292-14.904 3.4372-5.0306 4.2156-8.616 2.5636-11.811-2.1118-4.0838-7.473-3.0424-10.767 2.0916-5.4592 8.508-8.8082 11.449-15.358 13.487-12.8 3.9838-27.176 0.14598-36.986-9.874-3.405-3.4776-4.8838-4.571-6.1826-4.571-4.0872 0-5.2068 4.488-2.468 9.893 3.5026 6.912 14.52 13.742 26.836 16.636 4.8674 1.1437 14.61 0.70528 21.072-0.94822zm-67.83-34.694c0.559-0.2145 1.8521-2.0456 2.8736-4.069 3.38-6.6956 7.9292-10.488 14.802-12.338 3.6536-0.98384 6.3974 1.72e-4 10.367 3.7182 1.7247 1.6153 3.7484 3.256 4.497 3.646 4.8634 2.533 8.396-1.9924 5.9218-7.5858-3.6798-8.319-13.507-12.904-22.958-10.713-8.661 2.0086-14.823 7.0602-18.909 15.502-2.9172 6.027-3.1424 8.523-0.9652 10.7 1.5641 1.5641 2.5762 1.828 4.3702 1.1396zm80.062-12.349c3.0292-3.0866 7.051-5.0596 12.286-6.0272 4.9458-0.91426 6.1402-0.42998 8.6616 3.5116 2.7012 4.2226 4.4496 5.4244 7.5204 5.1684 1.8942-0.15791 2.5826-0.58898 3.5236-2.2066 1.0993-1.8895 1.1112-2.211 0.19836-5.3514-1.9601-6.7426-9.0056-12.262-15.64-12.251-10.553 0.01602-21.806 5.6684-25.186 12.65-1.6058 3.3172-1.6062 3.5992-7e-3 5.6324 0.98168 1.248 1.8477 1.642 3.6092 1.642 1.9193 0 2.7848-0.4759 5.0344-2.768z" fill="#fff" fill-rule="evenodd" stroke-linejoin="round" stroke-width="7.478" style="paint-order:markers stroke fill"/>
<path d="m10.732 14.149v-6.2318h158.91v12.463h-158.91zm151.93 4.2376c0.58162-0.58162 0.914-0.58162 1.4956 0 1.031 1.031 2.6822 0.93636 3.632-0.2082 0.6379-0.76862 0.64024-1.2422 0.0119-2.4164-0.65546-1.2247-0.60844-1.7244 0.29136-3.0978 0.86612-1.3219 0.92388-1.817 0.2997-2.569-1.014-1.2218-2.4288-1.1803-3.858 0.11303-0.88494 0.80086-1.3254 0.87358-1.8874 0.31158-1.0719-1.0719-3.4042-0.8949-3.86 0.2929-0.21654 0.56428-4e-3 1.6132 0.47272 2.3308 0.74416 1.1208 0.73594 1.5041-0.0583 2.7162-0.74218 1.1327-0.7721 1.5952-0.15151 2.343 0.93182 1.1228 2.5886 1.2071 3.6118 0.18383z" fill="#fff" fill-rule="evenodd" stroke-linejoin="round" stroke-width="7.478" style="paint-order:markers stroke fill"/>
</svg>
